~~~~~~~~~~~~~~~~~~~~~~~~~~~~~~~~~~~~~~~~~~~~~~~~~~~~~~~~~~~~~~~~~~~
Title: Watchmen[2009]
~~~~~~~~~~~~~~~~~~~~~~~~~~~~~~~~~~~~~~~~~~~~~~~~~~~~~~~~~~~~~~~~~~~
~~~~~~~~~~~~~~~~~~~~~~~~~~~~~~~~~~~~~~~~~~~~~~~~~~~~~~~~~~~~~~~~~~~
Release Notes

Genre: Mystery | Sci-Fi | Thriller

Rated: R for strong graphic violence, sexuality, nudity and language.

Movie Information: http://www.imdb.com/title/tt0409459/

Plot: In an alternate 1985 where former superheroes exist, the murder of a 
       colleague sends active vigilante Rorschach into his own sprawling 
       investigation, uncovering something that could completely change the 
       course of history as we know it.

Format                           : AVI
Format/Info                      : Audio Video Interleave
File size                        : 1.17 GiB
Duration                         : 2h 42mn
Overall bit rate                 : 1 033 Kbps
Movie name                       : Watchmen[2009]DvDRip[Eng]-Uvall
Writing application              : Lavf52.33.0

Video
Format                           : MPEG-4 Visual
Format profile                   : Simple@L3
Format settings, BVOP            : No
Format settings, QPel            : No
Format settings, GMC             : No warppoints
Format settings, Matrix          : Default (H.263)
Codec ID                         : XVID
Codec ID/Hint                    : XviD
Duration                         : 2h 42mn
Bit rate                         : 638 Kbps
Width                            : 704 pixels
Height                           : 296 pixels
Display aspect ratio             : 2.35:1
Frame rate                       : 23.976 fps
Resolution                       : 24 bits
Colorimetry                      : 4:2:0
Scan type                        : Progressive
Bits/(Pixel*Frame)               : 0.128
Stream size                      : 739 MiB (62%)
Writing library                  : XviD 1.2.1 (UTC 2008-12-04)

Audio
Format                           : AC-3
Format/Info                      : Audio Coding 3
Codec ID                         : 2000
Duration                         : 2h 42mn
Bit rate mode                    : Constant
Bit rate                         : 384 Kbps
Channel(s)                       : 6 channels
Channel positions                : Front: L C R, Surround: L R, LFE
Sampling rate                    : 48.0 KHz
Stream size                      : 445 MiB (37%)
Alignment                        : Aligned on interleaves
Interleave, duration             : 32 ms (0.77 video frame)
~~~~~~~~~~~~~~~~~~~~~~~~~~~~~~~~~~~~~~~~~~~~~~~~~~~~~~~~~~~~~~~~~~~
~~~~~~~~~~~~~~~~~~~~~~~~~~~~~~~~~~~~~~~~~~~~~~~~~~~~~~~~~~~~~~~~~~~
Posted By: Uvall
~~~~~~~~~~~~~~~~~~~~~~~~~~~~~~~~~~~~~~~~~~~~~~~~~~~~~~~~~~~~~~~~~~~